Coordinates
version=1
nRows=11
nColumns=42
inDegrees=yes

Units are S.I. units (second, meters, Newtons, ...)
If the header above contains a line with 'inDegrees', this indicates whether rotational values are in degrees (yes) or radians (no).

endheader
time	pelvis_tilt	pelvis_list	pelvis_rotation	pelvis_tx	pelvis_ty	pelvis_tz	hip_flexion_r	hip_adduction_r	hip_rotation_r	knee_angle_r	knee_adduction_r	knee_angle_r_beta	ankle_angle_r	subtalar_angle_r	mtp_angle_r	hip_flexion_l	hip_adduction_l	hip_rotation_l	knee_angle_l	knee_adduction_l	knee_angle_l_beta	ankle_angle_l	subtalar_angle_l	mtp_angle_l	lumbar_extension	lumbar_bending	lumbar_rotation	arm_flex_r	arm_add_r	arm_rot_r	elbow_flex_r	pro_sup_r	wrist_flex_r	wrist_dev_r	arm_flex_l	arm_add_l	arm_rot_l	elbow_flex_l	pro_sup_l	wrist_flex_l	wrist_dev_l
      1.28000000	      9.49361658	      1.36524652	      1.63465639	      0.89690349	      0.84126493	     -0.26840824	    -13.65645371	     -1.52272637	    -10.92441187	      7.48742123	      5.09619806	      0.13068015	     15.93311537	      7.26031867	     -7.50527739	     14.46978509	     -3.92255620	    -10.18044015	     57.42189316	     -0.71317164	      1.00220110	     11.35467401	    -12.39645378	     -7.50527739	    -20.23667762	     -1.21017635	      5.70897913	      1.91427406	    -14.46409929	     -9.82662096	     34.46691386	     90.00000001	      0.00000000	      0.00000000	     -1.41217348	     -9.72635030	    -22.08755980	     34.30693498	     90.00000001	      0.00000000	      0.00000000
      1.29000000	      9.11888754	      1.60669767	      1.11657095	      0.91118101	      0.84061601	     -0.26737934	    -14.85251703	     -1.80502858	    -10.93741742	      6.43426372	      5.28408774	      0.11229909	     16.09213127	      7.82267578	     -7.50511385	     15.96510661	     -3.56980872	    -10.90362906	     54.29842158	     -0.15908139	      0.94768624	     11.64320603	    -12.68484901	     -7.50511385	    -19.78139491	     -1.78433489	      6.75080393	      1.97990591	    -14.71784872	     -9.41988972	     34.87624368	     90.00000001	      0.00000000	      0.00000000	     -2.00682958	     -9.93137379	    -23.30693882	     33.61759527	     90.00000001	      0.00000000	      0.00000000
      1.30000000	      9.18103922	      1.98615173	      0.56354270	      0.92577912	      0.84013756	     -0.26650662	    -16.56629378	     -2.27736943	    -11.21904597	      5.39683269	      5.51832620	      0.09419250	     16.28282840	      8.13795946	     -7.50485801	     16.60000424	     -3.01138576	    -11.76306444	     50.51757823	      0.30794198	      0.88169807	     11.34651204	    -13.23256289	     -7.50485801	    -19.78609146	     -2.48837023	      7.70190968	      2.08497820	    -15.07536075	     -8.69602811	     35.36659755	     90.00000001	      0.00000000	      0.00000000	     -2.49546208	     -9.99446663	    -25.62133433	     32.98443861	     90.00000001	      0.00000000	      0.00000000
      1.31000000	      9.00335599	      2.08916424	      0.04987347	      0.94025191	      0.83886412	     -0.26560819	    -17.86756568	     -2.42169222	    -11.53487036	      4.58490202	      5.66552643	      0.08002164	     16.54432854	      8.68782341	     -7.50463877	     17.45554765	     -2.82211295	    -12.61694768	     46.65440782	      0.76031890	      0.81427303	     11.42068364	    -13.42046196	     -7.50463877	    -19.52223165	     -2.87959515	      8.69536543	      2.21827056	    -15.45328420	     -8.12005074	     35.78357664	     90.00000001	      0.00000000	      0.00000000	     -3.04180499	    -10.13010003	    -27.47668164	     32.32395255	     90.00000001	      0.00000000	      0.00000000
      1.32000000	      8.80648135	      2.06699739	     -0.42530671	      0.95477187	      0.83717364	     -0.26480937	    -19.04976021	     -2.44002275	    -11.96726783	      3.98118576	      5.81000033	      0.06948480	     16.84402557	      9.28637152	     -7.50445609	     18.18305816	     -2.76961842	    -13.49216755	     42.59062705	      1.15815649	      0.74334667	     11.61950443	    -13.17315761	     -7.50445609	    -19.23361075	     -3.11386605	      9.65336970	      2.39229314	    -15.86518117	     -7.60249728	     36.15159148	     90.00000001	      0.00000000	      0.00000000	     -3.64837704	    -10.28595720	    -29.20858133	     31.74167467	     90.00000001	      0.00000000	      0.00000000
      1.33000000	      8.68894626	      2.08851192	     -0.79891896	      0.96942792	      0.83524646	     -0.26438080	    -20.22509079	     -2.53422217	    -12.72958075	      3.65353466	      5.95372495	      0.06376621	     17.18889975	      9.83686199	     -7.50415148	     18.63037726	     -2.57351519	    -14.43821654	     38.24326224	      1.38789812	      0.66747084	     11.62214387	    -12.60825298	     -7.50415148	    -19.03443519	     -3.33691988	     10.38354905	      2.61330871	    -16.32836104	     -6.82674511	     36.54295353	     90.00000001	      0.00000000	      0.00000000	     -4.16880627	    -10.30861313	    -32.00583903	     31.21789079	     90.00000001	      0.00000000	      0.00000000
      1.34000000	      8.08128917	      1.50802359	     -0.98272290	      0.98366837	      0.83233216	     -0.26368490	    -20.60785224	     -1.65749823	    -13.25876974	      3.65469994	      5.52491182	      0.06378655	     17.49208641	     10.04320502	     -7.50406458	     19.85829254	     -3.13145698	    -15.18556930	     34.44865527	      1.57268121	      0.60124246	     11.77640705	    -11.53422369	     -7.50406458	    -18.34342132	     -2.88772933	     11.19843900	      2.80584531	    -16.72190297	     -6.66406622	     36.83569194	     90.00000001	      0.00000000	      0.00000000	     -5.01007189	    -10.58102478	    -32.61993760	     30.95615286	     90.00000001	      0.00000000	      0.00000000
      1.35000000	      8.48691297	      1.75041598	     -1.48398801	      0.99899057	      0.83058433	     -0.26357551	    -22.45781871	     -2.26515313	    -13.79671560	      3.30724440	      6.02959319	      0.05772230	     17.92839265	     10.81588311	     -7.50386726	     19.06907814	     -2.69268238	    -15.99240771	     29.51386145	      2.15540024	      0.51511406	     12.42512733	     -9.41060645	     -7.50386726	    -18.67040230	     -3.35150806	     11.78205472	      3.13900234	    -17.20850516	     -5.84912481	     37.19381048	     90.00000001	      0.00000000	      0.00000000	     -5.51075664	    -10.63116762	    -35.63643711	     30.28726926	     90.00000001	      0.00000000	      0.00000000
      1.36000000	      7.87464394	      1.14471160	     -1.67107288	      1.01337294	      0.82735930	     -0.26313412	    -22.72132812	     -1.43676672	    -14.05919259	      3.56570496	      5.54776555	      0.06223329	     18.22716514	     11.06849015	     -7.50378091	     19.99849917	     -3.27513638	    -16.43751624	     25.77933343	      2.52041510	      0.44993425	     12.29951892	     -7.61447444	     -7.50378091	    -17.98574416	     -2.85732345	     12.46450181	      3.37590523	    -17.61280579	     -5.63600331	     37.45947312	     90.00000001	      0.00000000	      0.00000000	     -6.34879249	    -10.83284651	    -36.50225838	     30.06633992	     90.00000001	      0.00000000	      0.00000000
      1.37000000	      8.32314444	      1.31962171	     -2.13349025	      1.02892722	      0.82534147	     -0.26330914	    -24.49792992	     -2.08386409	    -14.44643453	      3.52607677	      6.03299339	      0.06154165	     18.47974454	     11.66989370	     -7.50357950	     19.02223035	     -2.89417992	    -17.06749364	     21.32733331	      3.08621235	      0.37223219	     13.00764170	     -4.60701266	     -7.50357950	    -18.35762971	     -3.23003666	     12.85723784	      3.77154339	    -18.10102168	     -4.75199684	     37.79091165	     90.00000001	      0.00000000	      0.00000000	     -6.77197505	    -10.79273387	    -40.24027587	     29.43223831	     90.00000001	      0.00000000	      0.00000000
      1.38000000	      8.27427063	      1.00746177	     -2.46438048	      1.04404576	      0.82267853	     -0.26321730	    -25.46955451	     -1.96078139	    -14.55456477	      3.81397600	      5.96859506	      0.06656644	     18.67152396	     12.12856315	     -7.50340704	     18.94436438	     -3.17222067	    -17.32007063	     17.92453837	      3.63620927	      0.31284221	     13.27968660	     -2.12822692	     -7.50340704	    -18.23524380	     -3.07292072	     13.33456222	      4.09588463	    -18.51630521	     -4.28392176	     38.03755708	     90.00000001	      0.00000000	      0.00000000	     -7.33924812	    -10.85574942	    -42.70505694	     28.93413959	     90.00000001	      0.00000000	      0.00000000
